<?xml version="1.0" encoding="UTF-8"?>
<svg xmlns="http://www.w3.org/2000/svg" id="Layer_1" version="1.1" viewBox="0 0 400 188">
  <defs>
    <style>
      .st0 {
        fill: #1b313f;
      }

      .st1 {
        fill: #a6895f;
      }
    </style>
  </defs>
  <path class="st0" d="M275.5,18.5c6.6-7.1,15.7-12.2,25.5-13,4-.4,8.7-.5,11.8,2.7,4.4,4,4.3,11.7,0,15.6-3.8,3.8-10.7,3.7-14.4-.3-2.7-2.7-3.2-7.2-6.7-9.1-3.6-1.8-7.5.6-10.4,2.8-6.5,5.3-11.2,12.5-15.3,19.8-3.4,6.3-6.4,13-7.5,20.1-.5,2.9,1.7,5.2,2.6,7.7,5.5,12.1,1.8,27.4-8.5,35.7-6.9,5.5-16,7.1-24.5,7.7-6.5.4-13.4.3-19.4,3.2-2.8,1.2-5,4.5-3.5,7.5,1.8,3.1,5.7,3.6,8.8,4.2,13.7,2,27.9,1.1,41.4,4.6,5.3,1.4,10.1,4.4,13.5,8.7,5.7,7,6.9,17.1,4.1,25.5-2.9,8.4-10.5,14.4-18.7,17.3-10,3.4-20.8,3.8-31.2,2.7-5.1-.7-10.4-1.4-15-4-1.1-1.9.5-3.3,1.8-4.4,9,4.6,19.4,5.2,29.2,4.5,8.1-.7,16.7-3.5,21.7-10.2,5.9-7.7,4.2-21.2-5.4-25.1-12.5-5-26.2-3.3-39.2-5.4-5.7-.9-11.9-1.9-16.1-6.3-5.5-5.2-4.7-15.1,1.1-19.8,3-3.2,8.4-3,10.6-7-5.3-4.6-11.1-9.3-13.8-16-3.8-8.9-3-19.8,2.8-27.7,5.1-6.9,12.8-11.9,21.3-13.4,10.7-1.8,22.3.3,30.9,7.2,1.4,1.4,3.7.5,4.1-1.4,4.1-12.4,9.5-24.7,18.6-34.3ZM224.4,51.6c-6.8,1.4-11.1,7.8-12.5,14.2-1.7,8.2-2.1,17,.3,25.1,1.9,6.9,8.4,12.4,15.6,12.8,7,.8,14.2-3.4,17.2-9.8,2.6-5.6,2.9-11.8,2.9-17.9-.1-5.6-.6-11.5-3.5-16.5-4.1-6.6-12.4-9.9-19.9-8Z"></path>
  <path class="st0" d="M27.6,48.4c7.9-2.2,16.3-2.4,24.4-1.5,7.7.8,15.7,4.4,20.1,11.1,3.2,5.8,3,12.6,3.1,19,0,11.7,0,23.3,0,35,.1,3.9,0,7.9,1.3,11.7,1.5,3.7,7,3.8,9.6,1.3,2.2-1.8,2.6-4.8,3.8-7.2.7-1.8,2.6-.9,3.5.3,0,6.4-3.7,13.2-10.1,15.1-6,1.5-13.4,1.5-18-3.3-2.8-2.5-3-6.7-5.7-9.3-8.7,5.9-18.1,11.7-28.6,13.3-8.5,1.2-18.4-2.3-22.2-10.4-3.5-7.9-.3-17.3,5.9-22.8,13.1-11.4,30-16.6,45.5-23.6,1.3-4.1.3-8.8,0-13.1-.2-5.8-5-10.2-10.2-11.8-5-1.6-10.4-1.5-15.5-.4-3.5.8-7.2,2.9-8.5,6.5-1.3,3.4-1.3,7.2-3.5,10.2-2.3,3.3-7.8,3.9-10.7,1.1-2-2.7-1.3-6.6.4-9.3,3.6-5.6,9.2-9.8,15.6-11.6ZM27.5,101.6c-4.6,6.4-5.2,16.4.7,22.2,4.2,4,10.7,3.1,15.7,1,6-2.6,11.6-6.2,16.5-10.6.8-7.7,0-15.5.3-23.2-.2-2.9.9-6.4-1.4-8.7-11.3,4.8-24.1,8.8-31.7,19.2Z"></path>
  <path class="st0" d="M132.5,47.8c10.8-2.7,23.4-1.8,32.4,5.3,6.5,5.5,11.4,13.4,12.4,21.9.4,1.8-1.7,2.8-3.2,2.5-14.7,0-29.4,0-44,0-3,0-6-.2-9,.3-1.8,3-1,6.8-1.2,10.1.4,11.7,1.4,24.6,9.1,34.1,7.4,8.9,21,9.5,31,4.9,5.6-2.5,9.4-7.5,12.4-12.6,1.1-2.1,4.5-.6,4.1,1.6-2.3,6.2-7.4,11.2-13.2,14.3-10.4,5.8-23.5,6.5-34.5,1.9-10.6-4.3-19.1-13.3-23-24-3.1-8.9-3.3-18.8-1.5-28,2.8-14.7,13.5-28.3,28.2-32.4ZM136.5,51.6c-9.2,2.2-14.4,11.6-15.3,20.4,1.3,2,3.9,1.4,5.9,1.5,10.4-.2,20.7.1,31.1-.1,1.7,0,2.3-2,2.2-3.4.2-5.4-1.5-11.1-5.7-14.7-4.8-4.4-12-5.3-18.1-3.7Z"></path>
  <path class="st0" d="M286.4,51.6c9.1-1.2,18.3-2.4,27-5.5.8,1.1,1.5,2.4,1.3,3.8,0,21.7,0,43.4,0,65.1.2,3.4-.2,7.3,2.5,9.9,2.6,2.4,6.4,2,9.7,2.5,2.8-.3,2.8,4.8,0,4.5-13,.1-26,0-39,0-1.2,0-3.6,0-3.3-1.8-.5-1.4.6-3,2.1-2.8,3.7-.4,8.1.3,10.9-2.5,2.8-2.9,2.2-7.1,2.4-10.8,0-14.3.1-28.6,0-42.9-.4-4.4.1-9.6-3.3-12.9-2.9-2.2-6.9-1.3-10.3-1.8-2.5,0-2.6-4.5,0-4.7Z"></path>
  <path class="st0" d="M350.5,50.5c6.2-4.7,15.1-5.2,22.2-2.2,3.2,1.3,5.4,3.9,8.3,5.7,2.3-.6,2.6-3.5,3.9-5.1.9-2,4.2-1,3.9,1.1,0,7,0,14.1,0,21.1.3,2.4-3.2,3.2-3.8.8-2.3-7.1-5.9-14.3-12.4-18.4-6-3.7-15.1-3.5-19.5,2.5-4.1,4.8-3.2,12.5,1.4,16.6,8.2,7.5,19.6,9.8,28.5,16.3,11.8,7.3,15.2,25.1,7.3,36.4-6,8.6-17.9,11.8-27.8,9-4.9-1.3-9-4.5-12.8-7.8-2.5,1.9-3.3,5.1-4.8,7.7-1.6,1.2-4,0-3.7-2.1,0-7.4,0-14.8,0-22.2-.5-2.4,3.2-3.6,4.1-1.3,2.2,5.5,4.2,11.3,8.5,15.6,5.5,6.1,14.9,8.4,22.6,5.4,9.3-4.2,11-18.6,3-24.9-8.5-7-19.5-10-28.1-16.9-4.2-3.2-8.1-7.4-9.2-12.7-2.4-9,1.5-18.8,8.5-24.6Z"></path>
  <path class="st1" d="M40.5,145.7c5-1.2,11.1.5,13.8,5.2,2.4,4.5,1.8,10.8-2.2,14.1-6,5.4-17.5,3.1-19.6-5.1-2-6,1.8-12.9,8-14.2ZM40.2,147.2c-5.4,3-5,10.8-3.1,15.8,2.5,5.3,11.5,5.1,13.6-.4,1.5-3.9,1.5-8.4-.2-12.2-1.7-3.9-6.8-4.8-10.3-3.2Z"></path>
  <path class="st1" d="M65.7,146c5.6-.2,12.6-2.1,17,2.4,2.8,3.6-.9,7.9-4.7,8.5,3.7,3.6,6.1,8.7,11.3,10.6-2.1,0-4.3.4-6.4-.2-4-2.9-5.3-8.5-10-10.6-.2,3.1-.2,6.2,0,9.3,1.4,0,2.7.7,3.9,1.5-3.7,0-7.6.5-11.2-.4.9-.2,2.7-.8,3.6-1,.2-6.2.7-12.5-.2-18.6-.8-.3-2.4-1-3.3-1.4ZM72.6,146.7c0,3.2.1,6.4.1,9.6,1.6-.2,3.3-.2,4.9-.7,2.7-1.3,2.9-5.2,1.3-7.5-1.5-1.9-4.2-1.3-6.3-1.4Z"></path>
  <path class="st1" d="M97.1,146.2c2.3-.5,4.7-.4,7.1-.4,2.8,5.8,5.2,11.7,7.9,17.5,2.6-5.8,5.1-11.8,7.8-17.5,2.4,0,4.8-.1,7.1.5-1,.2-2.9.7-3.9.9-.4,6.2-.2,12.5,0,18.7,1,.3,2.9.8,3.8,1-3.6,1-7.6.9-11.2,0,.9-.2,2.7-.6,3.6-.9.4-5.5.2-11.1.2-16.6-3.2,6-5.5,12.4-8.5,18.5-3.6-5.9-5.6-12.6-8.9-18.6-.1,4.5-.4,9.1-.1,13.6-.2,2.4,2.2,3.3,3.7,4.6-2.8,0-5.6,0-8.3,0,1.4-1.2,3.9-2.2,3.6-4.5.1-5.2.5-10.5,0-15.8-.9-.2-2.8-.8-3.7-1Z"></path>
  <path class="st1" d="M135.2,146.2c3.6-.6,7.2-.4,10.8-.1-1.2.4-2.3,1-3.4,1.5-.6,4.7-.3,9.6-.1,14.3.4,6.5,11.6,6,12.6,0,.5-4.8.4-9.7-.2-14.5-.8-.3-2.5-1-3.4-1.4,2.7-.5,5.5-.4,8.2-.1-.7.5-2.2,1.5-3,2-1.2,5.2.6,10.7-1,15.7-3.1,5.8-13.3,5.7-16.2-.2-1.1-5.4,0-10.9-.7-16.4-.9-.3-2.7-.8-3.6-1.1Z"></path>
  <path class="st1" d="M168.5,146.1c3.8-.4,7.7-.7,11.5.1-1,.2-3,.7-4,.9-.4,6.3-.2,12.7-.1,19,2.7.3,5.5.8,8.1-.3,1.7-1.3,2.2-3.7,3.7-5.2,0,2.3,0,4.5-.2,6.8-6.2-.2-12.7.7-18.8-.5.9-.2,2.7-.7,3.6-1,.4-6.3.5-12.6,0-18.8-.9-.3-2.7-.8-3.6-1.1Z"></path>
  <path class="st1" d="M231.8,145.6c2.4-.8,4.8.4,6.8,1.6.5-.4,1.4-1.2,1.8-1.6-.1,2.2-.2,4.3-.3,6.5-1.5-2.3-2.9-5.6-6.1-5.7-2.6-.4-5.1,2.7-3.3,4.9,2.9,3.4,8.3,3.4,10.7,7.2,2.3,3.9-.8,9.4-5.3,9.3-2.6.4-4.8-1-6.8-2.3l-1,2.1c-.8-2.6-.8-5.4,0-8,1.2,2.8,2.2,6.7,5.8,7.1,3,.9,6.8-2.2,5.4-5.4-2.4-4.1-8.7-3.6-11-8-1.6-2.9,0-7,3.3-7.9Z"></path>
  <path class="st1" d="M5,146.1c5.7-.5,11.5-.3,17.2-.2,0,2,.1,3.9.1,5.9-1.1-1.6-1.7-3.5-3.3-4.7-2.3-.4-4.6-.3-7-.3,0,3,0,6,0,9,1.5-.2,3.1-.4,4.6-.7.2-.8.7-2.4,1-3.3.5,2.9.5,5.8.4,8.7-.7-1.2-1.1-2.6-2.2-3.6-1.3-.2-2.5-.3-3.8-.4,0,3.1,0,6.1,0,9.2,1.4.2,2.5.9,3.6,1.7-3.6.1-7.3.2-10.9-.3,1.3-.5,2.5-1,3.7-1.6.4-5.5.3-11.1.1-16.7.2-2.1-2.4-2-3.7-2.8Z"></path>
  <path class="st1" d="M199.2,163.1c2.6-6,4.9-12.2,7.8-18.1,3.1,6.1,5.3,12.7,8.2,19,.6,1.5,2,2.5,3.1,3.6-3-.1-6.2.4-9.1-.6.8-.3,2.4-.8,3.1-1-.8-2.1-1.6-4.2-2.5-6.3-2.7,0-5.3,0-8,0-.7,1.9-1.4,3.8-2,5.8.9.7,1.9,1.4,2.8,2.1-2.3,0-4.7,0-7,0,1.4-1.3,2.9-2.6,3.6-4.4ZM205.7,150.1c-1.1,2.8-2.2,5.6-3.2,8.5,2.3,0,4.5,0,6.8,0-1-2.9-2.1-5.8-3.6-8.4Z"></path>
</svg>
